HIERARCHY
ROOT Hips
{
	OFFSET 0.000000 0.000000 0.000000
	CHANNELS 6 Xposition Yposition Zposition Zrotation Yrotation Xrotation 
	JOINT LHipJoint
	{
		OFFSET 0.000000 0.000000 0.000000
		CHANNELS 3 Zrotation Yrotation Xrotation
		JOINT LeftUpLeg
		{
			OFFSET 1.363060 -1.794630 0.839290
			CHANNELS 3 Zrotation Yrotation Xrotation
			JOINT LeftLeg
			{
				OFFSET 2.448110 -6.726130 0.000000
				CHANNELS 3 Zrotation Yrotation Xrotation
				JOINT LeftFoot
				{
					OFFSET 2.562200 -7.039590 0.000000
					CHANNELS 3 Zrotation Yrotation Xrotation
					JOINT LeftToeBase
					{
						OFFSET 0.157640 -0.433110 2.322550
						CHANNELS 3 Zrotation Yrotation Xrotation
						End Site
						{
							OFFSET 0.000000 0.000000 0.000000
						}
					}
				}
			}
		}
	}
	JOINT RHipJoint
	{
		OFFSET 0.000000 0.000000 0.000000
		CHANNELS 3 Zrotation Yrotation Xrotation
		JOINT RightUpLeg
		{
			OFFSET -1.305520 -1.794630 0.839290
			CHANNELS 3 Zrotation Yrotation Xrotation
			JOINT RightLeg
			{
				OFFSET -2.542530 -6.985550 0.000000
				CHANNELS 3 Zrotation Yrotation Xrotation
				JOINT RightFoot
				{
					OFFSET -2.568260 -7.056230 0.000000
					CHANNELS 3 Zrotation Yrotation Xrotation
					JOINT RightToeBase
					{
						OFFSET -0.164730 -0.452590 2.363150
						CHANNELS 3 Zrotation Yrotation Xrotation
						End Site
						{
							OFFSET 0.000000 0.000000 0.000000
						}
					}
				}
			}
		}
	}
	JOINT LowerBack
	{
		OFFSET 0.000000 0.000000 0.000000
		CHANNELS 3 Zrotation Yrotation Xrotation
		JOINT Spine
		{
			OFFSET 0.028270 2.035590 -0.193380
			CHANNELS 3 Zrotation Yrotation Xrotation
			JOINT Spine1
			{
				OFFSET 0.056720 2.048850 -0.042750
				CHANNELS 3 Zrotation Yrotation Xrotation
				JOINT Neck
				{
					OFFSET 0.000000 0.000000 0.000000
					CHANNELS 3 Zrotation Yrotation Xrotation
					JOINT Neck1
					{
						OFFSET -0.054170 1.746240 0.172020
						CHANNELS 3 Zrotation Yrotation Xrotation
						JOINT Head
						{
							OFFSET 0.104070 1.761360 -0.123970
							CHANNELS 3 Zrotation Yrotation Xrotation
							End Site
							{
								OFFSET 0.000000 0.000000 0.000000
							}
						}
					}
				}
				JOINT LeftShoulder
				{
					OFFSET 0.000000 0.000000 0.000000
					CHANNELS 3 Zrotation Yrotation Xrotation
					JOINT LeftArm
					{
						OFFSET 3.362410 1.200890 -0.311210
						CHANNELS 3 Zrotation Yrotation Xrotation
						JOINT LeftForeArm
						{
							OFFSET 4.983000 -0.000000 -0.000000
							CHANNELS 3 Zrotation Yrotation Xrotation
							JOINT LeftHand
							{
								OFFSET 3.483560 -0.000000 -0.000000
								CHANNELS 3 Zrotation Yrotation Xrotation
								JOINT LeftFingerBase
								{
									OFFSET 0.000000 0.000000 0.000000
									CHANNELS 3 Zrotation Yrotation Xrotation
									JOINT LeftHandIndex1
									{
										OFFSET 0.715260 -0.000000 -0.000000
										CHANNELS 3 Zrotation Yrotation Xrotation
										End Site
										{
											OFFSET 0.000000 0.000000 0.000000
										}
									}
								}
								JOINT LThumb
								{
									OFFSET 0.000000 0.000000 0.000000
									CHANNELS 3 Zrotation Yrotation Xrotation
									End Site
									{
										OFFSET 0.000000 0.000000 0.000000
									}
								}
							}
						}
					}
				}
				JOINT RightShoulder
				{
					OFFSET 0.000000 0.000000 0.000000
					CHANNELS 3 Zrotation Yrotation Xrotation
					JOINT RightArm
					{
						OFFSET -3.136600 1.374050 -0.404650
						CHANNELS 3 Zrotation Yrotation Xrotation
						JOINT RightForeArm
						{
							OFFSET -5.241900 -0.000000 -0.000000
							CHANNELS 3 Zrotation Yrotation Xrotation
							JOINT RightHand
							{
								OFFSET -3.444170 -0.000000 -0.000000
								CHANNELS 3 Zrotation Yrotation Xrotation
								JOINT RightFingerBase
								{
									OFFSET 0.000000 0.000000 0.000000
									CHANNELS 3 Zrotation Yrotation Xrotation
									JOINT RightHandIndex1
									{
										OFFSET -0.622530 -0.000000 -0.000000
										CHANNELS 3 Zrotation Yrotation Xrotation
										End Site
										{
											OFFSET 0.000000 0.000000 0.000000
										}
									}
								}
								JOINT RThumb
								{
									OFFSET 0.000000 0.000000 0.000000
									CHANNELS 3 Zrotation Yrotation Xrotation
									End Site
									{
										OFFSET 0.000000 0.000000 0.000000
									}
								}
							}
						}
					}
				}
			}
		}
	}
}
MOTION
Frames: 8
Frame Time: 0.008333
10.785705 17.434862 -39.675559 -3.524161 -15.047387 5.061302 -5.663654 -1.467195 -3.892552 -4.165721 1.349055 -34.337076 0.722503 11.643027 24.691411 -6.233206 22.772849 22.877299 0.080700 -1.832900 -5.044200 6.072995 -5.904777 10.489081 10.379250 11.620587 11.050515 2.309094 -3.595698 12.846015 2.729503 -13.712650 21.847808 -0.489600 4.486400 -12.449300 3.587433 3.129952 7.652831 0.609869 4.047041 -3.160821 -2.868576 2.842989 -1.517234 -4.596604 2.178418 -12.475248 4.004095 3.086277 -0.227850 0.724000 1.490900 1.427700 -4.481034 -1.851323 -0.235479 -87.005057 18.545662 -24.331034 1.632496 -8.106381 -0.647673 -1.682977 -1.403403 -3.949689 24.010934 17.667782 8.852400 -7.125000 0.000000 0.000000 -2.419800 50.679600 -0.338800 6.936329 3.548546 0.019905 65.304752 14.784406 46.845444 -36.427411 44.638435 -17.474241 1.251909 -0.741679 -20.663729 -32.366891 17.638035 -11.937600 7.125000 0.000000 0.000000 -3.263600 -7.866500 -2.790900
10.790423 17.442651 -39.533374 -3.406958 -14.761485 5.014228 -5.740237 -1.464016 -3.792455 -4.347166 1.226566 -34.230611 0.736658 11.696791 25.045073 -5.915017 22.110086 23.101473 0.052031 -1.411092 -3.881706 6.141792 -5.850111 10.406919 10.344168 11.419168 10.693037 2.067395 -4.058915 13.947355 2.938774 -14.559244 22.647773 -0.668044 5.177731 -14.427041 3.409303 3.102252 7.524509 0.588633 3.993700 -3.176774 -2.886674 2.807333 -1.496368 -4.456899 2.112671 -12.596252 4.032021 2.986817 -0.091686 0.700402 1.442247 1.533993 -4.506098 -1.849933 -0.231241 -86.705254 18.310580 -24.262014 1.560408 -7.986186 -0.636293 -1.707144 -1.390466 -3.456680 24.107521 17.678223 8.898944 -7.125000 0.000000 0.000000 -2.313005 50.708621 -0.325444 6.944889 3.539359 -0.012430 65.489909 14.159456 46.688513 -36.218084 44.547853 -17.339242 1.266406 -0.709315 -20.687308 -32.254816 17.112648 -11.569366 7.125000 0.000000 0.000000 -3.289408 -8.520927 -2.769913
10.795132 17.450468 -39.391220 -3.289402 -14.476133 4.966676 -5.816860 -1.460628 -3.692029 -4.529141 1.104710 -34.123840 0.751140 11.750689 25.399213 -5.599474 21.450744 23.319929 0.023544 -0.991395 -2.725035 6.210466 -5.795402 10.324586 10.308499 11.217538 10.334648 1.825251 -4.522433 15.049862 3.147109 -15.404143 23.448444 -0.846750 5.868577 -16.403767 3.230521 3.074848 7.397497 0.567424 3.940750 -3.192892 -2.904072 2.771796 -1.477120 -4.318837 2.046819 -12.715220 4.060970 2.887284 0.043403 0.677646 1.393638 1.639321 -4.531215 -1.848745 -0.226983 -86.405842 18.076176 -24.193460 1.488293 -7.865915 -0.624913 -1.731222 -1.377485 -2.963270 24.202471 17.688464 8.944722 -7.125000 0.000000 0.000000 -2.207901 50.737122 -0.312297 6.953400 3.530222 -0.044782 65.675079 13.532984 46.531245 -36.008734 44.457238 -17.204270 1.280961 -0.676887 -20.710744 -32.143509 16.586254 -11.200837 7.125000 0.000000 0.000000 -3.315878 -9.176403 -2.749367
10.798807 17.461494 -39.252711 -3.129893 -14.256331 4.862326 -5.898169 -1.432309 -3.552521 -4.774331 1.058118 -33.980690 0.804418 11.820559 25.810315 -5.598899 21.198415 22.858029 0.016867 -0.822742 -2.261202 6.264631 -5.735528 10.221881 10.202893 10.990831 9.867964 1.530173 -5.021775 16.291146 3.244049 -16.047296 24.333062 -1.056775 6.501866 -18.259800 2.974229 3.082596 7.426430 0.549557 3.934378 -3.228510 -2.838139 2.750463 -1.650357 -4.376354 1.968608 -12.591855 4.211523 2.779028 0.050620 0.755118 1.350156 1.629781 -4.562498 -1.871723 -0.220411 -86.152900 17.922452 -24.180280 1.413064 -7.736564 -0.613465 -1.744814 -1.359306 -2.422057 24.102475 17.675077 8.899383 -7.125000 0.000000 0.000000 -2.304052 50.703783 -0.323946 6.956137 3.527130 -0.079184 65.861838 12.725373 46.334008 -35.796680 44.362777 -17.072559 1.302473 -0.636925 -20.717191 -32.123671 15.940069 -10.797255 7.125000 0.000000 0.000000 -3.421217 -9.956704 -2.781350
10.802474 17.472583 -39.114253 -2.968478 -14.037614 4.757397 -5.979580 -1.403955 -3.412388 -5.021748 1.014465 -33.838162 0.857295 11.890045 26.221164 -5.597625 20.944061 22.394758 0.010319 -0.657461 -1.806643 6.318222 -5.675590 10.118731 10.095854 10.766199 9.400724 1.234194 -5.521638 17.534593 3.340159 -16.688315 25.215893 -1.264633 7.128099 -20.095348 2.714845 3.090409 7.456544 0.532015 3.927832 -3.264451 -2.768771 2.728962 -1.826134 -4.437164 1.890505 -12.465114 4.362349 2.671153 0.056934 0.833261 1.306875 1.619106 -4.593485 -1.895085 -0.213906 -85.903937 17.770658 -24.165773 1.338169 -7.608102 -0.602118 -1.758285 -1.341072 -1.881268 24.001665 17.662018 8.853813 -7.125000 0.000000 0.000000 -2.401178 50.670583 -0.335733 6.959026 3.524175 -0.113555 66.045916 11.915771 46.138590 -35.583669 44.267902 -16.940379 1.323784 -0.597799 -20.723900 -32.107642 15.311472 -10.406078 7.125000 0.000000 0.000000 -3.526116 -10.715205 -2.814513
10.805656 17.487394 -38.978815 -2.694624 -13.882906 4.618322 -6.067001 -1.373584 -3.235379 -5.400614 1.144239 -33.732295 0.886524 11.936933 26.617129 -5.555067 20.570200 21.850583 0.011474 -0.691101 -1.899229 6.337964 -5.611891 9.989369 9.904232 10.663937 8.900594 0.885143 -6.052249 18.905730 3.387305 -17.203371 25.993240 -1.344616 7.338023 -20.722210 2.273056 3.102005 7.556347 0.533656 3.910996 -3.319480 -2.496761 2.697550 -2.151710 -4.692279 1.818806 -12.139207 4.529181 2.585803 0.009982 0.950901 1.275394 1.541483 -4.607008 -1.941150 -0.211343 -85.889790 17.732679 -24.072972 1.282941 -7.532079 -0.596635 -1.764638 -1.319536 -1.365533 23.852858 17.668400 8.794617 -7.125000 0.000000 0.000000 -2.555873 50.645579 -0.355716 6.970933 3.529302 -0.146071 66.071853 10.988739 46.050585 -35.314153 44.148600 -16.780584 1.333197 -0.607963 -20.746056 -32.316370 15.720560 -10.746747 7.125000 0.000000 0.000000 -3.605095 -10.187506 -2.917291
10.808925 17.502181 -38.843428 -2.419751 -13.726842 4.480603 -6.154672 -1.343897 -3.059022 -5.780527 1.274411 -33.626881 0.914556 11.982897 27.010898 -5.507733 20.189114 21.314057 0.012520 -0.721199 -1.982072 6.357358 -5.547430 9.858613 9.713203 10.562722 8.400327 0.534981 -6.582825 20.278200 3.434440 -17.717482 26.766302 -1.426777 7.552669 -21.363633 1.831765 3.112388 7.645876 0.535167 3.892523 -3.371751 -2.225220 2.665600 -2.460567 -4.944072 1.747614 -11.822026 4.692632 2.501264 -0.036715 1.066023 1.244080 1.464500 -4.620442 -1.985793 -0.207841 -85.874954 17.680549 -23.978209 1.227704 -7.455968 -0.591175 -1.771197 -1.298012 -0.850052 23.708255 17.675701 8.737518 -7.125000 0.000000 0.000000 -2.706344 50.622276 -0.375221 6.982892 3.533040 -0.177766 66.095888 10.076707 45.964157 -35.041162 44.027202 -16.618306 1.342627 -0.618316 -20.771482 -32.524578 16.134947 -11.090688 7.125000 0.000000 0.000000 -3.682719 -9.653494 -3.019463
10.815618 17.516059 -38.710020 -2.105128 -13.517859 4.395805 -6.252125 -1.340917 -2.908053 -6.201272 1.420136 -33.539138 0.895866 11.992877 27.319030 -5.274112 19.526232 21.075862 0.009306 -0.613149 -1.684933 6.363147 -5.453257 9.673479 9.545336 10.502324 7.894667 0.141498 -7.111965 21.702650 3.481157 -18.194727 27.372209 -1.593874 7.951431 -22.572972 1.409929 3.075494 7.334733 0.531616 3.810250 -3.316430 -1.972024 2.612673 -2.117387 -5.066263 1.696204 -11.845192 4.724174 2.448339 -0.073460 1.082944 1.219277 1.412483 -4.630393 -1.974984 -0.167753 -85.833269 17.076526 -23.806968 1.172077 -7.376424 -0.586577 -1.785763 -1.276938 -0.344513 23.727623 17.718857 8.762221 -7.125000 0.000000 0.000000 -2.692084 50.665305 -0.376075 6.996937 3.482603 -0.177419 66.045785 9.749661 45.939261 -34.632688 43.824072 -16.359203 1.352718 -0.636028 -20.924449 -32.712518 16.756023 -11.562203 7.125000 0.000000 0.000000 -3.707472 -8.873243 -3.097990
